<svg stroke-width="10" viewBox="0 0 1690 1707" fill="none" xmlns="http://www.w3.org/2000/svg">
  <path d="M239.267 1701.56C237 1699.29 240.467 1685.56 253.667 1645.42C284.6 1551.02 293.933 1515.69 307.533 1442.09C316.733 1392.49 317.533 1384.22 316.6 1345.56C315.8 1307.82 313.133 1287.29 305.133 1255.56C295.133 1216.62 282.067 1189.29 264.867 1171.42C258.2 1164.49 255.267 1159.56 245.533 1139.29C239.267 1126.22 231.667 1112.22 228.6 1108.36C225.667 1104.36 214.733 1093.69 204.467 1084.36C181.533 1063.82 162.333 1044.36 157 1036.22C154.6 1032.76 153 1028.49 153 1026.09C153 1023.69 152.067 1020.89 150.867 1019.96C148.867 1018.36 148.733 1018.49 149.667 1021.42L150.6 1024.76L147.133 1021.42C143 1017.69 133 998.49 133 994.223C132.867 992.757 131.133 989.29 129 986.757C126.733 984.223 125 980.623 125 978.757C125 976.89 123.933 974.757 122.467 973.823C121.133 973.023 119.267 969.423 118.467 966.09C116.067 956.623 110.733 946.757 107.133 945.423C103.8 944.223 101.8 939.023 103.133 935.423C103.8 933.957 103.133 933.023 101.4 932.623C96.4667 931.29 89.8 916.09 68.2 857.557C50.4667 809.69 46.4667 792.623 41.4 742.357C38.2 710.49 38.2 625.823 41.4 595.957C45.6667 556.757 50.2 536.223 61.1333 507.023C81.2667 453.29 112.467 397.957 148.733 351.823C155.133 343.557 165.933 329.157 172.6 319.957C221.4 252.757 261.933 214.223 334.333 166.09C364.6 145.957 381.533 136.223 411 121.957C498.333 79.6895 602.867 53.9562 716.333 46.7562C742.733 45.1562 821.4 46.2228 847.667 48.7562C909 54.3562 962.867 64.6227 1016.6 80.6227C1072.47 97.4227 1149.93 131.69 1180.73 153.423C1196.2 164.357 1223.27 188.89 1255 220.623C1290.47 256.223 1303.67 271.157 1328.73 304.623C1354.07 338.49 1364.2 354.49 1382.2 389.157C1390.87 405.823 1399.67 422.223 1401.67 425.423C1409.53 437.823 1429.13 483.023 1440.87 515.823C1448.07 536.223 1464.87 601.557 1469 625.823C1472.2 645.023 1472.47 670.223 1469.67 682.49C1468.6 687.157 1464.2 698.89 1459.93 708.49C1455.53 718.223 1449.53 732.757 1446.47 741.023L1440.87 755.957L1446.33 766.357C1453.4 779.957 1461.53 789.957 1498.47 830.357C1515.4 848.89 1537.67 874.09 1547.93 886.357C1566.2 908.223 1590.47 935.957 1618.47 966.757C1634.6 984.623 1643.4 995.69 1647.8 1004.09C1650.47 1009.16 1651 1011.96 1650.87 1022.09C1650.87 1032.36 1650.33 1035.29 1647 1042.49C1640.07 1057.82 1621.4 1071.69 1599.67 1077.96C1589.53 1080.76 1569.8 1084.09 1563.13 1084.09C1554.73 1084.09 1542.73 1087.69 1536.33 1092.09C1523.27 1101.02 1520.47 1117.56 1527.27 1144.09C1529.93 1154.76 1530.87 1161.42 1530.87 1172.09C1531 1184.89 1530.6 1186.76 1527.27 1193.82C1522.6 1203.16 1513.53 1211.56 1497.67 1220.62C1486.47 1227.16 1481.4 1231.82 1484.33 1232.89C1490.07 1235.02 1494.87 1239.56 1497.27 1245.02C1502.6 1257.02 1497.67 1276.36 1485 1292.76C1459.8 1325.56 1454.47 1356.22 1464.87 1409.42C1476.33 1468.22 1478.73 1486.09 1478.87 1511.42C1479 1536.49 1477.4 1542.49 1466.47 1557.02C1457.8 1568.62 1442.47 1583.96 1436.33 1587.02C1425.8 1592.36 1376.87 1600.76 1312.33 1608.09C1267.67 1613.16 1241.13 1614.76 1205.67 1614.49C1171.8 1614.22 1170.73 1614.36 1157.67 1617.82C1123.93 1626.89 1095.67 1647.29 1082.33 1672.22C1075 1685.96 1073 1694.09 1071.53 1714.09C1070.87 1724.36 1069.93 1733.69 1069.53 1735.02C1068.47 1738.76 1065.27 1737.82 1062.73 1733.02" stroke="#3F3B37" style="stroke-dashoffset: 0px; stroke-dasharray: 4827.79;"></path>
  <path d="M807 98.7547C815.8 99.5547 830.2 101.421 839 102.888C847.8 104.355 867.267 107.288 882.333 109.554C943.533 118.488 1011.4 135.021 1060.87 153.021C1082.33 160.755 1134.87 187.021 1152.2 198.754C1206.2 235.021 1267 298.088 1302.6 354.888C1321.93 385.688 1340.47 422.621 1379 506.754C1404.87 563.288 1410.33 578.355 1411.4 594.888C1412.2 610.488 1410.2 618.221 1401.67 630.621C1397.93 636.221 1394.47 641.821 1393.93 643.154C1393.4 644.621 1393.93 649.288 1395 653.688C1397.4 662.621 1396.87 665.821 1391.93 671.154C1386.07 677.288 1378.07 678.888 1343.67 680.221C1326.47 680.888 1307 682.355 1300.47 683.421C1277.53 687.421 1259.67 697.021 1233.67 719.421C1202.07 746.754 1192.87 751.021 1148.07 758.754C1119.8 763.688 1104.87 767.821 1089.67 775.288C1069.4 785.288 1060.73 795.554 1042.6 831.421C1030.07 855.954 1023.93 865.021 1010.6 879.021C988.6 901.954 961.667 916.354 927.667 923.688C915.8 926.221 894.867 926.621 839 925.288C817 924.754 814.2 925.021 805.667 927.688C795.267 931.021 784.867 937.421 771 949.021C763.4 955.421 761.667 957.688 761.4 961.154C760.733 969.821 746.733 993.421 742.333 993.421C734.2 993.421 735.4 975.154 745 952.888C748.2 945.288 756.467 932.354 766.867 918.754C777.133 905.154 787.4 884.354 789.133 873.421C790.733 863.421 793.933 857.421 804.2 845.421C814.067 833.821 817.533 827.021 821.533 811.688C827.133 790.088 833.4 780.354 846.333 773.554C850.733 771.154 854.867 769.554 855.533 769.954C856.067 770.354 857 776.221 857.4 783.021C858.467 799.421 860.333 804.888 867.667 812.088C874.733 819.288 883.4 822.488 898.333 823.688C922.867 825.554 941.933 814.088 950.6 792.221C953.267 785.421 953.533 782.754 953.267 763.688C953 737.554 953.933 734.754 963.933 734.754C966.733 734.754 983.8 737.688 1001.93 741.421C1042.73 749.554 1052.33 750.354 1075 747.554C1204.33 731.421 1269.8 677.555 1283 576.488C1284.07 567.955 1285 549.821 1285.13 535.021C1285.27 520.621 1285.67 505.421 1286.07 501.421C1287 494.221 1287 494.088 1291.53 494.088C1299.53 493.955 1303.8 484.621 1298.87 477.688C1296.2 473.821 1295.27 473.955 1289.67 478.888C1287 481.288 1284.73 482.888 1284.47 482.621C1284.33 482.355 1282.47 473.688 1280.47 463.421C1275.53 437.821 1264.07 389.688 1260.2 377.688C1249.4 344.754 1215.27 293.421 1179.8 257.021C1172.2 249.155 1162.73 240.354 1158.87 237.288C1148.87 229.554 1073 192.354 1040.33 179.154C1015.13 169.021 959.8 152.888 917.667 143.554C865.667 131.954 827.533 127.821 751.667 125.288C700.2 123.554 679.267 124.221 661.667 128.088C645.933 131.555 618.067 136.621 595.667 140.088C568.067 144.488 543.933 150.221 518.067 158.754C505.133 163.021 491.133 167.155 486.733 167.955C465.8 171.688 362.2 231.954 323.667 262.754C299 282.488 246.733 337.688 222.067 370.088C209.133 387.155 168.067 451.288 160.733 466.088C150.6 486.088 132.467 567.021 125.8 622.088C124.733 630.888 122.867 645.955 121.667 655.421C120.6 665.021 118.733 676.088 117.533 680.088C111.533 702.621 116.333 751.555 129.133 796.088C135.8 819.288 153.533 852.488 174.2 880.355C180.867 889.288 189.8 901.688 194.067 907.688C205.133 923.554 221 941.288 233.933 952.488C250.067 966.354 281.667 987.021 300.733 996.221C318.6 1004.76 340.6 1018.22 385.667 1048.09C401.8 1058.76 417.4 1068.62 420.333 1070.09C423.667 1071.69 424.867 1072.76 423.533 1073.02C419.4 1073.96 386.067 1071.02 384.733 1069.69C383.667 1068.62 383.8 1067.16 384.867 1064.36C386.2 1061.16 386.2 1059.56 384.6 1055.69C382.6 1051.16 378.2 1047.42 376.6 1049.02C376.067 1049.42 377 1051.29 378.333 1053.16C382.867 1058.76 381.933 1060.36 374.733 1059.29L368.333 1058.36L370.867 1061.29C373.4 1064.09 373.4 1064.09 370.733 1064.09C368.067 1064.09 349.4 1057.96 340.333 1054.09C337.4 1052.76 333.267 1050.36 331.267 1048.62C329 1046.76 325.667 1045.42 323.267 1045.42C314.867 1045.42 299.4 1035.69 301.8 1031.96C302.733 1030.49 305.8 1031.82 314.067 1037.16C317.933 1039.69 321.533 1041.42 322.067 1040.89C323.133 1039.69 311.533 1028.76 306.067 1025.96C303 1024.36 301.667 1024.22 300.2 1025.56C297.133 1028.09 297.933 1034.22 301.933 1037.96C308.867 1044.49 305.267 1043.96 279.667 1034.89C273.4 1032.62 265.533 1030.76 262.2 1030.76C255.133 1030.76 237.8 1026.62 231.8 1023.42C225.533 1020.22 218.333 1013.42 218.333 1010.76C218.333 1009.42 219.267 1007.69 220.333 1006.76C222.733 1004.76 223 994.621 220.733 992.355C217.8 989.421 216.733 990.621 217.267 996.088C217.8 1002.22 216.867 1002.76 213.8 998.088C210.733 993.421 209 993.954 209.933 999.421C210.333 1002.09 210.067 1004.09 209.4 1004.09C201 1004.09 159.667 944.088 140.333 903.688C128.2 878.354 104.867 805.688 97.8001 771.288C95.9334 762.621 93.0001 749.688 91.1334 742.621C81.1334 703.955 85.0001 634.621 101.8 556.355C108.467 525.288 109.4 523.555 112.867 535.821C113.8 539.155 115.133 541.421 116.067 541.021C118.733 540.221 124.067 527.821 124.2 522.088C124.333 517.155 124.067 516.754 121 517.154C111 518.354 111 518.355 110.6 513.821C109.267 500.221 136.733 442.888 168.067 393.421C181.933 371.688 193.133 356.754 212.467 334.754C221.267 324.754 237.133 306.221 247.8 293.421C277.4 257.821 298.733 238.754 334.333 215.421C379.267 186.088 419.933 167.288 488.333 144.088C509.667 136.888 537.533 127.421 550.333 123.021C597 107.021 631.533 99.6883 673.667 96.8883C688.6 95.955 791 97.4214 807 98.7547ZM751 151.955C766.2 155.155 775.267 159.288 786.867 168.221C801 179.154 804.6 183.021 806.067 188.888C806.733 191.688 808.333 198.221 809.533 203.155C811.533 212.221 814.6 219.421 819.667 228.088C822.733 233.155 822.733 234.088 819.667 258.754C813.8 305.421 833.533 371.555 855 376.888C857.267 377.421 861 376.621 866.2 374.221C870.467 372.354 875.267 370.754 876.867 370.754C878.6 370.754 882.733 373.821 887.4 378.621C893 384.488 896.333 386.755 900.067 387.421C907.4 388.888 913.533 387.155 920.2 382.088C927.8 376.355 933.4 373.421 937 373.421C938.6 373.421 941.533 372.488 943.667 371.288C947.133 369.154 947.667 369.155 953.4 372.088C963.8 377.288 972.867 373.554 979 361.288C980.867 357.688 982.867 354.621 983.4 354.621C983.933 354.488 986.867 354.221 990.067 354.221C997.667 353.821 1003.67 347.954 1009.93 334.754C1015.8 322.221 1017 320.888 1025.93 316.754C1029.93 315.021 1035.67 311.421 1038.73 308.754C1041.67 306.221 1046.47 303.421 1049.13 302.754C1060.87 299.554 1070.2 283.421 1073.13 261.421C1077.27 230.755 1082.73 227.688 1110.73 241.154C1138.2 254.221 1158.87 269.821 1186.47 298.488C1209.27 322.088 1217 333.954 1228.87 363.688C1239.53 390.754 1248.07 420.755 1252.87 448.088C1256.87 471.288 1261.4 515.821 1260.47 523.288C1259.13 535.021 1253.93 543.288 1243.13 551.288C1237.8 555.288 1230.33 561.288 1226.47 564.621C1215.8 574.088 1210.33 577.288 1201.67 578.888C1192.47 580.488 1186.73 584.354 1183 591.154C1179.53 597.554 1181.4 598.888 1186.73 593.821C1192.2 588.488 1198.47 585.421 1203.53 585.421C1210.33 585.421 1213.93 583.155 1227 570.888C1245.8 553.155 1255.67 550.621 1260.47 562.088C1264.33 571.421 1261.4 588.888 1252.47 609.421C1230.33 660.488 1164.6 705.688 1089 721.554C1077.8 723.954 1070.47 724.621 1052.33 724.621C1026.33 724.621 1021.67 723.688 997.133 713.421C964.467 699.688 941.133 699.688 932.067 713.288C928.333 718.888 928.067 727.421 931.267 738.754C933.4 746.621 933.4 746.888 930.467 752.754C927.533 758.621 927.533 759.021 929.533 765.021C932.733 774.221 932.333 784.088 928.6 789.554C924.467 795.688 915.4 802.354 908.6 804.221C899.667 806.621 887.133 805.288 883 801.421C878.333 797.021 878.733 792.488 885 784.221C891.667 775.288 892.333 769.154 886.733 766.488C881.933 764.221 880.733 761.421 874.2 739.288C871.267 729.154 866.733 716.888 864.2 712.088C851 686.888 823.667 665.688 790.467 654.888C772.2 648.888 761.4 647.421 737.667 647.555C717.933 647.555 712.867 648.088 698.333 651.288C645.667 663.021 634.067 676.088 605.667 756.621C597.267 779.955 592.2 790.088 588.2 791.688C584.467 793.154 583.667 789.021 584.467 773.421C585.267 759.954 585 756.754 582.333 747.421C578.2 732.754 578.333 723.288 583.133 715.154C594.733 695.021 595.8 689.288 589 682.488C585.4 679.021 584.2 678.488 579.667 679.154C575.667 679.688 573.533 679.154 571 677.154C566.067 673.288 566.733 669.288 572.6 666.088C579.133 662.621 583.133 656.488 586.467 644.888C595.933 612.355 604.6 592.755 615.267 579.421C620.333 573.155 623.8 570.355 631.667 566.488C646.733 559.021 655.133 557.155 677.267 556.488C692.2 555.955 699.4 556.355 707.933 558.088C723 561.021 782.6 580.754 791.667 585.688C795.667 587.954 804.067 594.088 810.333 599.288C816.6 604.621 825.133 611.421 829.4 614.621C837.933 620.888 843.267 627.555 849.267 639.421C860.333 661.421 873.4 679.421 881 683.421C883 684.488 886.333 688.088 888.2 691.421C892.333 698.221 897.933 701.821 904.067 701.154C908.2 700.754 908.333 700.488 908.2 694.755C908.067 685.955 901.4 670.088 894.733 663.021C887.667 655.288 884.467 645.688 885.267 633.955C886.333 617.421 894.6 614.354 919.133 621.154C939.267 626.888 947.267 628.088 963.667 628.088C997 628.088 1024.33 614.088 1035 591.421C1040.6 579.421 1041.13 564.354 1036.47 550.221C1031.53 535.821 1023 523.021 1008.47 508.621C977 477.421 945.4 463.421 885 453.955C863 450.488 804.467 450.488 786.333 453.821C757.4 459.288 735 465.955 691 482.355C679.267 486.755 664.333 491.955 657.667 493.955C607.133 509.155 592.2 516.355 569.667 536.355C557.267 547.421 546.2 560.088 535.933 575.154C524.867 591.154 521 598.888 518.867 609.288C516.6 620.355 512.333 627.288 502.333 636.488C487 650.621 468.867 658.755 434.2 666.755C398.867 674.888 375.4 685.421 353.533 702.888C341.267 712.621 332.733 723.421 324.733 739.288C321 746.621 314.067 759.554 309.4 767.954C298.333 787.554 293 799.821 284.867 824.221C276.867 848.488 272.733 856.888 262.467 869.554C250.867 883.954 222.467 911.688 221.267 909.954C220.733 909.154 214.333 899.954 207 889.554C189.933 865.554 177.8 845.421 166.333 822.355C152.067 793.688 149.533 784.754 142.867 738.488C140.067 718.621 139.533 711.555 140.2 700.088C142.067 671.555 148.467 631.288 151.8 627.288C157.133 620.755 160.467 641.688 156.467 656.888C153.533 668.221 153.8 674.221 157.533 682.088C161.267 689.955 168.467 700.088 170.333 700.088C173.133 700.088 171.4 692.221 166.867 684.621C160.867 674.621 160.333 671.821 162.867 661.821C165.933 650.355 165.533 640.755 161.667 629.555C157 615.555 155.533 602.755 157.133 588.621C158.6 574.755 164.467 549.155 167.4 543.555C169.267 539.821 169.4 539.688 171.133 542.088C172.2 543.421 174.6 549.688 176.467 555.955C181 570.888 185.133 578.755 190.867 583.821C197.8 589.821 203.933 591.021 222.333 589.955C238.067 589.021 238.067 589.021 241.533 592.488C245.933 596.888 245.933 600.088 241.533 616.755C235.533 639.688 237.8 649.288 253.133 667.955C265 682.488 270.333 694.221 266.2 696.888C265.4 697.288 260.6 695.821 255.533 693.421C245.133 688.621 242.2 688.755 234.067 694.355C227.4 698.888 220.467 698.221 202.6 691.021C188.733 685.288 185 684.488 185 686.621C185 691.155 206.333 700.355 221.133 702.088C227.4 702.888 229.8 702.488 236.733 699.555C250.333 693.821 250.6 694.488 239.667 707.955C230.067 720.088 223.133 732.888 220.2 744.088C217.8 753.688 218.467 759.021 223.133 768.355C225.533 773.021 226.333 776.888 226.333 782.888C226.333 788.754 226.733 790.888 228.067 790.355C229.133 790.088 229.667 786.888 229.667 781.288C229.667 773.821 229.133 771.821 225.4 766.221C222.2 761.288 221 758.088 221 753.954C221 741.954 230.733 723.821 244.733 709.421L252.467 701.421H260.467C266.867 701.421 269.4 700.755 273 698.088C282.733 690.888 298.2 695.554 312.6 709.688C321 717.954 323.267 718.888 321.933 713.154C319.8 704.621 303.133 692.221 291 690.088C278.067 687.688 273.933 684.755 261.933 669.021C242.2 643.021 241.4 640.355 246.867 619.021C250.867 603.555 251.133 597.821 248.2 593.688C244.867 588.888 241.4 587.821 225.4 586.621C207.533 585.288 200.733 583.688 194.067 579.288C186.6 574.488 183.133 566.888 177 542.088C171.933 521.955 171.4 518.221 171.933 507.421C172.6 491.821 176.2 483.821 188.467 470.888L197.533 461.288L200.067 464.355C206.467 472.355 215.133 486.888 227.533 510.621C234.867 524.888 243.267 539.155 245.933 542.488C252.067 550.088 261 554.088 275.267 556.088C298.067 559.155 306.333 563.821 320.6 582.088C333.533 598.621 347.4 619.688 349.267 625.688C350.6 630.221 350.467 631.288 348.067 634.488C346.6 636.488 341.933 639.421 337.533 641.288C325.4 646.088 294.333 668.355 294.333 672.088C294.333 676.488 307.133 670.888 315.4 663.021C318.333 660.221 326.867 654.755 334.333 650.755C350.2 642.355 355.267 637.955 356.333 631.021C356.867 628.355 357.4 625.288 357.667 624.355C359 620.488 364.333 623.154 374.733 633.154C386.733 644.621 399.4 652.755 413.4 658.088C423.133 661.688 428.333 662.355 429.8 659.821C431.4 657.288 425.267 653.555 412.467 649.555C395.533 644.221 392.6 642.621 379.667 630.221C373.4 624.221 364.733 617.421 360.2 615.154C350.733 610.088 344.733 603.955 338.333 592.755C332.6 582.621 315.933 565.821 305.933 560.221C301.133 557.554 292.2 554.355 281.933 551.955C273 549.688 264.067 546.755 261.933 545.288C259.933 543.821 258.333 543.288 258.333 544.088C258.333 544.755 257.8 545.421 257 545.421C254.733 545.421 245 529.688 232.067 505.021C225.133 491.688 216.467 476.754 212.867 471.688C209.133 466.488 205.8 460.221 205 456.888C201.533 441.021 212.733 416.488 232.067 397.821C243.8 386.355 253.133 381.421 263.133 381.421C270.733 381.421 272.067 382.221 287.267 395.288C300.867 407.021 307 409.288 326.867 410.621C345.267 411.821 346.867 412.488 361.267 424.355L369 430.888V451.821C369 476.621 370.733 492.755 375.133 507.821C379.667 523.421 381.4 526.221 406.2 561.154L428.333 592.221L437.667 591.421C468.2 588.755 476.067 583.155 479.533 561.421C480.333 556.621 481 535.688 481 514.754C481 465.421 483 453.554 492.467 447.154C500.467 441.688 505 436.355 505 432.355C505 427.955 502.2 425.021 501.267 428.088C500.867 429.155 496.467 434.354 491.4 439.688C486.067 445.421 480.6 452.621 478.6 457.154L475 464.754L474.733 512.754C474.6 539.154 474.067 562.621 473.667 565.021C472.467 571.421 467.4 576.488 458.067 580.888C447.4 585.688 439.4 585.954 433.4 581.688C428.733 578.354 406.867 549.955 394.867 531.288C381.267 510.488 379.133 502.621 377 463.421C375.133 430.088 374.067 424.754 366.067 408.221C362.333 400.488 359.267 392.488 359.133 390.488C359 387.421 358.467 386.754 356.6 387.288C350.333 388.888 346.333 377.421 346.333 357.555C346.333 341.421 348.333 332.088 354.6 318.221C359.533 307.288 360.067 305.288 360.867 290.888C361.533 280.355 362.6 274.088 364.067 271.154C366.733 266.088 376.2 258.088 400.333 240.088C431 217.155 445.133 208.888 463 203.021C467.4 201.555 475.8 198.221 481.667 195.688C487.533 193.021 495.667 190.488 499.667 189.955C505.933 189.288 507.533 189.555 510.733 192.088C517.667 197.555 514.6 209.154 499.667 233.288C482.067 261.821 481.933 266.888 497.667 304.621C502.333 315.821 502.733 317.688 503.8 336.621C505.133 360.355 507.8 372.621 513.533 381.154C521.667 393.421 534.467 398.754 555.8 398.754C561.4 398.754 567.133 399.155 568.333 399.555C572.2 401.021 574.333 407.554 574.333 417.688C574.467 435.554 578.467 445.421 587.667 450.621C591.667 452.888 604.867 455.954 621 458.221C624.467 458.754 627.267 458.088 631.667 455.555C647.533 446.488 652.733 445.688 660.867 451.288C663.8 453.421 668.2 455.555 670.6 455.955L675 456.888L674.6 467.154C674.333 473.154 674.6 477.421 675.4 477.421C677.8 477.421 679.667 473.821 681.133 466.221C682.733 457.288 680.867 453.021 674.733 451.555C672.733 451.021 667.8 448.488 663.933 445.821C657.933 441.688 656.2 441.154 651.133 441.688C647.8 442.088 641.133 444.354 636.067 446.754C618.467 455.154 600.867 453.421 589.667 442.221C583.533 435.954 581.533 430.488 580.333 415.021C579.533 403.955 577.267 398.488 572.067 395.154C569 393.154 565.933 392.754 553.8 393.154C540.467 393.554 538.733 393.288 532.333 390.088C518.333 383.288 513.667 371.421 509.8 333.955C507.4 310.888 505.667 304.488 497.4 286.355C487.4 264.488 487.8 259.155 500.6 240.355C505.533 233.288 512.067 223.688 515.133 219.155C518.2 214.621 521.667 207.554 522.867 203.554C524.6 197.954 526.467 195.021 531.667 190.355C550.067 173.821 593.667 159.821 633.267 157.955C665 156.355 679.533 161.155 694.2 177.955C704.467 189.688 705.133 190.888 706.6 198.621C707.933 205.954 710.333 208.755 719.133 212.888C728.2 217.155 731.8 223.955 736.867 246.488C741.267 265.955 742.067 267.688 752.333 282.355C762.733 297.021 768.6 303.821 774.333 307.421C777 309.155 779.933 312.355 780.733 314.621C781.667 316.888 783 320.488 783.8 322.754C785.8 328.088 789 327.954 789 322.754C789 316.621 785.8 311.555 774.467 299.421C763.133 287.555 750.867 269.955 746.333 259.421C744.733 255.688 742.333 247.554 741 241.154C739.533 234.754 737.133 226.488 735.533 222.888C732.6 215.955 723.933 206.754 720.333 206.754C716.467 206.754 713 201.688 713 195.688C712.867 188.088 710.467 181.954 704.6 174.354C701.933 170.754 699.667 166.488 699.667 164.754C699.667 160.754 705.667 153.554 711 151.288C716.867 148.754 737 149.021 751 151.955ZM870.467 157.154C879.8 160.221 900.867 165.955 917.267 169.955C975.4 184.088 1019.13 198.354 1045.4 211.688C1052.73 215.288 1067 224.621 1068.2 226.488C1069.4 228.488 1066.33 270.088 1064.47 277.154C1060.6 291.154 1052.6 300.088 1043.93 300.088C1042.47 300.088 1038.07 302.755 1034.2 306.088C1030.33 309.288 1025.13 312.755 1022.47 313.555C1015.67 315.688 1012.07 319.421 1006.87 329.688C1004.33 334.621 1000.47 340.755 998.067 343.421C994.467 347.555 993.267 348.221 989.933 347.555C984.067 346.355 977.8 350.888 974.2 358.621C971.267 365.155 965.533 369.421 959.8 369.421C956.067 369.421 949.267 361.688 947.133 354.888C943.533 343.955 943.4 339.288 945.667 321.688C946.867 312.221 947.667 301.821 947.4 298.621C946.867 292.888 946.867 292.888 945.4 296.355C943.4 300.888 941.4 315.954 939.667 341.154C938.867 352.354 937.667 362.888 937 364.621C936.333 366.488 934.333 368.088 932.067 368.754C930.067 369.154 924.867 371.955 920.6 374.888C906.2 384.755 901.933 384.488 891 373.421C881.533 363.821 877.933 363.021 866.867 367.821C859.667 371.021 857.133 371.555 853.933 370.621C840.467 366.755 831.533 344.354 829.133 309.154C828.2 294.088 827.133 287.821 824.2 279.555L820.6 269.021L823.667 256.488C827.4 240.888 826.733 233.421 820.2 219.688C817.533 213.954 815 206.088 814.333 201.021C813.533 196.221 811.533 187.554 809.533 181.821C804.467 166.221 806.6 158.354 817.4 153.288C822.2 151.021 825.133 150.754 838.333 151.154C851.8 151.688 855.667 152.354 870.467 157.154ZM352.467 288.754C355.667 293.554 354.2 301.688 347.667 316.488C333.8 347.688 335 365.955 353.4 398.088C363.4 415.555 363.4 417.288 353.667 409.955C348.6 406.088 340.2 404.221 328.867 404.088C312.6 404.088 304.733 400.354 283.667 382.754C277.4 377.554 269.8 371.688 266.733 369.688C263.533 367.688 261 365.688 261 365.021C261 362.755 285.8 330.221 295.267 319.955C320.733 292.888 346.067 279.021 352.467 288.754ZM883.667 463.555C953.4 472.221 1006.87 503.955 1024.87 547.421C1027.67 553.955 1028.2 557.555 1028.2 567.421C1028.2 581.288 1025.67 588.488 1017.53 597.421C1000.2 616.621 967.933 621.688 927.533 611.421C905.8 605.955 893 607.155 883.4 615.821C876.733 621.955 874.333 627.288 874.333 636.355C874.333 645.288 877.8 652.754 886.467 663.154C893.8 671.821 901 685.421 901 690.355C901 695.421 898.6 695.021 894.867 689.154C892.867 686.088 887 679.288 881.8 674.221C873.4 665.954 870.867 662.221 861.667 644.221C849.8 621.288 846.733 617.555 823.267 598.088C802.867 581.288 798.067 577.955 783 570.755C752.6 556.088 717.133 547.821 684.333 547.555C664.2 547.555 654.067 549.155 637.267 555.555C606.333 567.155 592.6 585.555 579.667 632.755C573.8 654.088 572.6 656.488 568.067 658.621C555.533 664.355 540.733 653.955 531.533 633.021C527 622.755 527.133 607.421 531.933 597.154C537.4 585.288 544.733 575.155 556.333 562.888C566.867 551.955 587.933 534.754 591 534.754C591.8 534.754 594.2 536.621 596.467 538.888C601.8 544.355 617.667 555.155 619.667 554.488C622.2 553.688 613.267 545.688 603 539.688C597.933 536.754 593.4 534.088 593.133 533.821C592.067 533.021 597.4 529.688 610.333 523.021C624.6 515.555 634.333 511.821 660.6 504.088C670.467 501.021 691 493.821 706.2 487.821C721.267 481.955 740.6 475.154 749 472.754C789.533 461.021 837.4 457.821 883.667 463.555ZM1295.4 484.621C1295.67 485.955 1295.27 487.688 1294.6 488.355C1293 489.955 1289.8 484.755 1291 482.621C1292.33 480.621 1294.87 481.955 1295.4 484.621ZM809.533 669.021C823.933 676.221 837 696.088 837 710.888C837 717.688 837.533 719.155 841.667 724.355C859.533 746.355 861.133 756.621 847.667 763.421C838.333 768.221 827.933 776.888 823.533 783.821C821.4 787.288 817.8 796.088 815.533 803.421C810.2 821.421 803.933 833.554 794.067 845.021C789.533 850.354 785.667 854.488 785.4 854.221C785.133 854.088 787.4 847.421 790.467 839.421C797.933 819.688 800.2 806.888 799.267 789.421C798.2 768.621 792.2 753.821 780.867 743.554C773.4 736.621 765.933 733.688 754.2 732.621C748.733 732.088 743.267 731.154 741.933 730.488C739.533 729.288 739.533 729.021 742.2 726.221C743.667 724.621 745.8 719.421 747 714.755C750.733 698.888 751.667 696.488 754.467 693.955C755.933 692.621 766.333 685.421 777.4 677.955C791.267 668.755 798.467 664.621 800.333 665.154C801.8 665.421 805.933 667.288 809.533 669.021Z" stroke="#3f3b37" style="stroke-dashoffset: 0px; stroke-dasharray: 19306.1;"></path>
  <path d="M720.319 937.022L720.326 936.835C720.525 931.436 720.525 926.053 720.326 920.685L720.319 920.499L720.435 920.354L757.042 874.59L757.042 874.589C757.902 873.52 758.498 872.265 758.783 870.923C759.068 869.582 759.034 868.193 758.683 866.868C753.216 846.427 745.06 826.802 734.43 808.507L734.427 808.502C733.752 807.31 732.806 806.293 731.667 805.533C730.527 804.774 729.226 804.292 727.867 804.127C727.866 804.127 727.865 804.127 727.864 804.127L669.617 797.653L669.432 797.632L669.305 797.495C665.651 793.54 661.841 789.731 657.886 786.076L657.749 785.949L657.729 785.764L651.278 727.61C651.277 727.609 651.277 727.608 651.277 727.607C651.112 726.248 650.631 724.947 649.871 723.807C649.111 722.668 648.095 721.722 646.903 721.047L646.898 721.045C628.626 710.438 609.034 702.291 588.629 696.814C587.305 696.46 585.917 696.422 584.576 696.704C583.234 696.985 581.978 697.577 580.907 698.433L535.166 735.039L535.021 735.156L534.834 735.149C529.436 734.933 524.054 734.933 518.686 735.149L518.5 735.156L518.354 735.04L472.544 698.433L472.542 698.432C471.474 697.572 470.218 696.976 468.877 696.691C467.536 696.406 466.147 696.44 464.822 696.791C444.397 702.262 424.788 710.417 406.507 721.044L406.502 721.047C405.31 721.722 404.293 722.668 403.533 723.807C402.774 724.947 402.292 726.248 402.127 727.607C402.127 727.608 402.127 727.609 402.127 727.61L395.653 785.857L395.632 786.042L395.495 786.169C391.54 789.824 387.731 793.633 384.076 797.588L383.95 797.725L383.764 797.745L325.61 804.197C325.609 804.197 325.608 804.197 325.607 804.197C324.248 804.362 322.947 804.843 321.807 805.603C320.668 806.363 319.722 807.38 319.047 808.572L319.045 808.576C308.438 826.848 300.291 846.44 294.814 866.845C294.46 868.169 294.422 869.557 294.704 870.899C294.985 872.24 295.577 873.496 296.432 874.566C296.432 874.567 296.433 874.567 296.433 874.567L333.039 920.308L333.156 920.454L333.149 920.64C332.933 926.038 332.933 931.421 333.149 936.788L333.156 936.974L333.04 937.12L296.433 982.93L296.432 982.932C295.572 984 294.976 985.256 294.691 986.597C294.406 987.938 294.44 989.328 294.791 990.654C300.262 1011.08 308.418 1030.69 319.044 1048.97L319.047 1048.97C319.722 1050.16 320.668 1051.18 321.807 1051.94C322.946 1052.7 324.247 1053.18 325.606 1053.35C325.607 1053.35 325.608 1053.35 325.61 1053.35L383.857 1059.82L384.042 1059.84L384.169 1059.98C387.813 1063.92 391.643 1067.75 395.588 1071.4L395.725 1071.52L395.745 1071.71L402.22 1129.98C402.22 1129.98 402.22 1129.98 402.22 1129.98C402.385 1131.34 402.866 1132.64 403.626 1133.78C404.386 1134.92 405.403 1135.87 406.595 1136.54L406.599 1136.54C424.897 1147.12 444.513 1155.24 464.937 1160.68L464.937 1160.68C466.261 1161.04 467.65 1161.07 468.991 1160.79C470.332 1160.51 471.589 1159.92 472.659 1159.06C472.659 1159.06 472.659 1159.06 472.659 1159.06L518.4 1122.46L518.545 1122.34L518.731 1122.35C524.13 1122.55 529.514 1122.55 534.882 1122.35L535.067 1122.34L535.212 1122.46L580.977 1159.06L580.977 1159.07C582.528 1160.31 584.457 1160.99 586.445 1160.99C587.183 1160.99 587.917 1160.89 588.631 1160.71C609.064 1155.23 628.681 1147.07 646.967 1136.43L646.972 1136.43C648.164 1135.75 649.181 1134.81 649.941 1133.67C650.7 1132.53 651.181 1131.23 651.346 1129.87C651.347 1129.87 651.347 1129.87 651.347 1129.86L657.821 1071.62L657.842 1071.43L657.979 1071.31C661.924 1067.66 665.753 1063.83 669.398 1059.89L669.525 1059.75L669.71 1059.73L727.98 1053.25C727.981 1053.25 727.983 1053.25 727.984 1053.25C729.342 1053.09 730.643 1052.61 731.782 1051.85C732.922 1051.09 733.868 1050.07 734.543 1048.88L734.545 1048.88C745.125 1030.58 753.241 1010.96 758.683 990.537L758.683 990.537C759.037 989.213 759.075 987.824 758.794 986.483C758.513 985.142 757.921 983.886 757.065 982.816L720.319 937.022ZM720.319 937.022L720.435 937.167L757.065 982.815L720.319 937.022ZM526.738 826.487H526.737C506.514 826.487 486.745 832.484 469.93 843.719C453.115 854.955 440.009 870.924 432.27 889.608C424.531 908.291 422.506 928.85 426.452 948.685C430.397 968.52 440.135 986.739 454.435 1001.04C468.735 1015.34 486.955 1025.08 506.789 1029.02C526.624 1032.97 547.183 1030.94 565.866 1023.2C584.55 1015.46 600.519 1002.36 611.755 985.544C622.99 968.729 628.987 948.96 628.987 928.737V928.736C628.956 901.628 618.174 875.638 599.005 856.469C579.836 837.3 553.846 826.518 526.738 826.487ZM470.486 844.551C487.136 833.425 506.711 827.487 526.736 827.487C553.58 827.518 579.316 838.195 598.298 857.176C617.279 876.158 627.957 901.894 627.987 928.738C627.987 948.763 622.049 968.338 610.923 984.988C599.798 1001.64 583.985 1014.62 565.484 1022.28C546.983 1029.94 526.625 1031.95 506.984 1028.04C487.344 1024.13 469.303 1014.49 455.142 1000.33C440.982 986.172 431.339 968.13 427.433 948.49C423.526 928.849 425.531 908.491 433.194 889.99C440.858 871.489 453.835 855.676 470.486 844.551ZM526.737 826.987C506.613 826.987 486.94 832.955 470.208 844.135C453.475 855.315 440.434 871.207 432.732 889.799C425.031 908.391 423.016 928.85 426.942 948.587C430.868 968.325 440.559 986.455 454.789 1000.69C469.019 1014.92 487.149 1024.61 506.887 1028.53C526.624 1032.46 547.083 1030.44 565.675 1022.74C584.267 1015.04 600.159 1002 611.339 985.266C622.52 968.534 628.487 948.861 628.487 928.737C628.456 901.761 617.727 875.898 598.651 856.823C579.576 837.748 553.713 827.018 526.737 826.987Z" stroke="#FF007F" style="stroke-dashoffset: 0px; stroke-dasharray: 3745.49;"></path>
</svg>