<svg viewBox="0 0 270 238" fill="none" xmlns="http://www.w3.org/2000/svg"><path d="M75.7999 0.999817C72.7999 3.19982 74.5999 7.99982 78.2999 7.99982C82.0999 7.99982 83.5999 3.99982 80.2999 1.39982C77.9999 -0.400183 77.9999 -0.400183 75.9999 0.999817M80.4999 3.29982C80.9999 4.99982 80.9999 5.59982 79.9999 6.59982C77.7999 7.99982 74.7999 4.99982 75.9999 1.99982C76.5999 -0.200183 79.3999 0.599817 80.1999 2.79982M181 8.19982C178.7 8.99982 178.7 12.6998 181 14.1998C183.2 14.9998 186.2 13.4998 186.2 11.1998C186.2 8.19982 184.9 6.89982 181.9 7.69982M184.9 9.69982C184.9 12.1998 184.9 13.1998 181.9 13.1998C179.9 13.1998 179.9 12.6998 179.9 11.1998C178.9 8.99982 180.9 6.99982 183.9 8.49982M172.9 17.4998C158.9 28.4998 134.9 51.8998 136.9 50.4998L142.9 45.4998L145.9 42.9998L158.9 30.9998L165.9 24.9998C165.9 23.9998 168.9 20.9998 171.9 18.9998C176.9 14.3998 177.9 12.5998 176.9 12.5998L170.9 17.3998M82.9999 9.59982C88.9999 18.5998 113.8 47.0998 115.3 47.7998C117.5 47.7998 116.8 46.2998 107.8 36.5998C103.3 31.2998 96.4999 23.7998 93.4999 20.0998C89.9999 17.0998 85.9999 12.0998 83.7999 10.0998L80.5999 6.09982L82.5999 9.09982M117.3 47.0998C109.6 49.0998 105 54.0998 105 60.0998V63.0998H28.5999C0.999947 62.9998 -2.00005 65.9998 0.999946 92.9998C2.39995 106.5 2.59995 135.8 1.19995 156.2C-0.300054 179.2 -0.300054 219.2 1.19995 224.2C2.79995 228.7 6.99995 233.2 11.1999 234.7C14.1999 236.2 79.4999 236.9 167.2 236.9H211C211 236.9 221.5 235.9 230.3 236.9C249.1 237.9 255.3 235.9 259.9 235.9C269.9 232.9 270.9 220.9 267.9 175.9C265.9 150.9 265.9 121.9 267.9 101.9C268.9 83.8998 267.9 73.8998 264.9 66.8998C261.9 60.8998 264.9 60.8998 198.9 61.8998H140.9V56.8998C140.9 47.8998 127.9 41.8998 114.9 45.8998M132.9 49.8998C136.9 51.8998 138.9 55.8998 138.9 58.8998V61.8998H121.9C103.9 61.8998 103.9 61.8998 103.9 56.8998C103.9 47.8998 120.9 42.8998 131.9 48.8998M261.9 64.8998C265.9 71.8998 268.9 78.8998 265.9 102.9C263.9 116.9 263.9 145.9 265.9 181.9C267.9 217.9 265.9 227.9 257.9 231.9C252.9 233.9 263.9 233.9 155.9 231.9C107.9 230.9 60.8999 230.9 51.8999 231.9C9.89995 233.9 3.89995 232.9 1.89995 211.9C0.899946 203.9 2.89995 174.9 3.89995 144.9C4.89995 128.9 3.89995 93.8998 1.89995 86.8998C1.89995 82.8998 2.89995 69.8998 3.89995 67.8998C5.89995 62.8998 2.89995 62.8998 98.8999 61.8998L222.9 60.8998M233.9 75.8998C255.9 75.8998 255.9 73.8998 255.9 100.9C255.9 109.9 255.9 128.9 256.9 140.9C255.9 161.9 257.9 164.9 254.9 166.9C251.9 168.9 220.9 168.9 218.9 167.9L217.9 166.9V98.9998C217.9 80.1998 217.9 79.9998 220.9 78.3998H223.9L220.9 76.9998C215.9 76.9998 215.9 75.6998 215.9 121.4C215.9 170.4 214.9 170.4 217.9 171.4C219.9 172.4 250.9 172 253.9 170.9C255.9 169.9 256.9 153.9 256.9 98.8998C255.9 75.8998 253.9 75.8998 230.9 75.8998L219.9 76.8998L222.9 77.8998M35.9999 81.9998C24.3999 84.9998 22.7999 87.5998 21.6999 111C17.9999 201 18.6999 210 32.1999 217C38.1999 220 42.4999 220 112.5 219C185.5 218.7 187.3 218.7 195 214.8C206.2 209.8 206.2 209.8 206.2 147.8L206 98.7998L204 93.5998C200 85.3998 194 83.0998 175 81.5998C156.6 80.8998 40.6999 80.8998 36.3999 82.3998M177 84.3998C192 85.9998 199 90.3998 202 100.1C203.8 107.1 203.7 198.1 201.4 204.1C196.4 218.1 194.9 218.1 110.6 218.1C33.5999 219.1 31.9999 219.1 26.7999 210.1C21.7999 203.1 20.7999 207.1 21.9999 151.1C23.7999 79.0998 26.1999 88.0998 36.9999 85.0998C40.1999 84.0998 162.4 84.0998 176.7 85.0998M241.7 90.0998C240.4 91.0998 238.7 91.0998 237.3 91.0998C225.5 91.0998 219.3 105.1 226.9 114.1C227.9 114.1 227.9 115.1 226.9 117.1C225.9 120.1 228.9 122.1 230.9 120.1C233.9 116.1 230.9 118.1 237.9 117.1C242.9 114.1 246.9 110.1 244.9 101.1C243.9 98.0998 243.9 96.0998 243.9 95.0998C242.9 93.0998 242.9 94.0998 241.9 92.0998M241.9 94.0998C242.9 95.0998 243.9 97.0998 240.9 101.1L234.9 113.1C229.9 121.1 227.9 123.6 225.9 120.8C224.9 120.1 236.9 97.7998 237.9 95.2998C239.9 94.2998 239.9 94.2998 240.9 94.2998M229.9 110.3C223.9 121.3 225.9 117.3 221.9 111.3C220.9 106.3 223.9 98.2998 231.9 96.2998H237.9L232.9 105.6M244.9 108.6C244.9 113.6 240.9 120.3 235.9 120.6C229.9 121.4 232.9 121.6 240.9 106.2L242.9 101.2V102.2C243.9 104 244.1 106.9 244.1 108.2M222.1 138.2C223.1 139.8 221.6 140.2 220.7 142.2C215.3 151.2 222.7 163.2 233.3 163.2C234.6 163.2 236.3 161.2 237.6 164.2C239.6 165.2 243.6 162.2 241.6 157.2C240.6 156.2 242.6 156.2 244.6 152.2C243.6 143.2 240.6 138.2 232.6 136.2C229.6 135.2 228.6 136.2 227.6 134.2C226.6 132.7 226.6 132.8 223.6 134.2M230.6 141.2L234.1 147.2L237.1 152.6C241.1 158.6 241.1 160.6 238.5 162.2C236.5 163.9 235 162.2 227.5 148.2L221.5 137.8L224.5 136.8L226.5 134.8L229.5 138.8M236.5 139.8C242 142.8 245 149.8 242.5 155.3C241.5 158.3 241.5 157.9 236 147.3C227 135.3 230.8 136.3 236.7 140.1M229.7 154.1C234.3 162.1 237.3 164.1 230.7 162.5C219.7 160.5 215.7 150.5 219.7 143.5C222.3 138.8 222.7 141.5 229.7 153.8M223.7 193C226.7 194 249.7 194 250.7 193C251.7 192 250 192 246.7 192C244.7 192 241.7 192 237.7 192.6C230.7 192.6 222.9 192.6 223.7 193.3M224.1 207.3C225.1 207.6 251.1 208.3 251.1 207.5C251.1 206.5 246.1 206.5 237.6 206.5H223.6M219 212.7C221 211.7 253.4 213.1 253.4 213.1M219.4 207.1C221.4 206.1 253.7 208.1 253.7 208.1M219.2 201.1C221.2 200.1 253.6 202.1 253.6 202.1M219 195.1C221 194.1 253.6 196.1 253.6 196.1M219.2 189.1C221.2 188.1 253.6 190.1 253.6 190.1M219.4 185.1C221.4 184.1 253.8 186.1 253.8 186.1M222.7 185.8C227.7 186.2 245.7 186 245.7 185.8C245.7 184.8 241.7 184.8 234.7 184.8C226.7 184.8 220.7 185 222.7 185.8Z" stroke="#3F3B37" style="stroke-dashoffset: 3831px; stroke-dasharray: 4657.67;"></path></svg>